<svg xmlns="http://www.w3.org/2000/svg" viewBox="0 0 200 200" fill="none">
  <circle cx="100" cy="100" r="100" fill="#F5D5D5"/>
  <path fill="#E85D4C" d="M48 168c12-8 28-12 42-12h20c14 0 30 4 42 12v32H48v-32z"/>
  <path fill="#E85D4C" d="M70 86c-10 34 6 66 38 74 32-8 48-40 38-74-12-30-42-38-62-22-8 8-12 26-14 22z"/>
  <path fill="#111" d="M54 68c-4 20 2 42 16 54 2-16-2-34-10-48 2 8 0 18-6-6z"/>
  <path fill="#111" d="M48 52c0 18 8 32 20 38-8-12-10-28-6-42-4 2-8 2-14 4z"/>
  <circle cx="122" cy="112" r="10" fill="none" stroke="#FFF" stroke-width="3"/>
  <path stroke="#111" stroke-width="2" d="M82 142c4 8 12 12 20 8"/>
</svg>
