<svg xmlns="http://www.w3.org/2000/svg" viewBox="0 0 200 200" fill="none">
  <circle cx="100" cy="100" r="100" fill="#D5E5D0"/>
  <path fill="#5B7553" d="M48 168c12-8 28-12 42-12h20c14 0 30 4 42 12v32H48v-32z"/>
  <path fill="#5B7553" d="M74 88c-8 32 8 62 36 70 28-8 44-38 36-70-10-28-38-36-58-20-12 10-18 28-14 20z"/>
  <path fill="#111" d="M58 70c-8 22-2 48 14 60 2-20-4-42-14-56-4 8-6 18-2-4z"/>
  <path fill="#111" d="M88 118c-8 12-4 24 8 28 12-4 18-16 10-28-6 4-14 4-18 0z"/>
  <path stroke="#FFF" stroke-width="2.5" stroke-linecap="round" d="M96 112c6 4 14 4 20 0"/>
  <path stroke="#111" stroke-width="3" d="M88 150h24"/>
</svg>
