<svg xmlns="http://www.w3.org/2000/svg" viewBox="0 0 200 200" fill="none">
  <circle cx="100" cy="100" r="100" fill="#E5D5F0"/>
  <path fill="#8B5CF6" d="M48 168c12-8 28-12 42-12h20c14 0 30 4 42 12v32H48v-32z"/>
  <path fill="#8B5CF6" d="M72 90c-8 30 8 60 36 68 28-8 44-38 36-68-10-28-38-36-58-20-12 10-18 28-14 20z"/>
  <path fill="#111" d="M56 68c-6 26 4 52 22 62 4-18-2-40-12-54-6 8-10 20-10-8z"/>
  <path fill="#111" d="M62 58c8-8 22-10 32-2-10 2-18 10-22 20-2-8-6-14-10-18z"/>
  <circle cx="98" cy="132" r="2" fill="#FFF"/><circle cx="106" cy="132" r="2" fill="#FFF"/>
  <circle cx="114" cy="132" r="2" fill="#FFF"/><circle cx="122" cy="132" r="2" fill="#FFF"/>
  <path stroke="#111" stroke-width="2" d="M94 148h20"/>
</svg>
