<svg xmlns="http://www.w3.org/2000/svg" viewBox="0 0 200 200" fill="none">
  <circle cx="100" cy="100" r="100" fill="#E8E4E0"/>
  <path fill="#5C4033" d="M48 168c12-8 28-12 42-12h20c14 0 30 4 42 12v32H48v-32z"/>
  <path fill="#5C4033" d="M76 92c-4 28 12 56 40 64 28-8 40-36 32-64-6-24-32-32-52-16-8 8-14 22-20 16z"/>
  <path fill="#111" d="M62 64c-10 4-18 16-20 32 4-12 12-22 24-26-4-12 0-24 8-32-8 4-14 14-12 26z"/>
  <path stroke="#FFF" stroke-width="2.5" d="M128 98c8 0 14 6 14 14M128 98v-8M128 126v8"/>
  <circle cx="128" cy="112" r="5" fill="#FFF"/>
  <path stroke="#111" stroke-width="3" d="M90 150h28"/>
</svg>
