<svg xmlns="http://www.w3.org/2000/svg" viewBox="0 0 200 200" fill="none">
  <defs>
    <linearGradient id="leoSkin" x1="100" y1="60" x2="100" y2="132">
      <stop stop-color="#FFDCC4"/>
      <stop offset="1" stop-color="#E8A87C"/>
    </linearGradient>
    <linearGradient id="leoHair" x1="100" y1="30" x2="100" y2="86">
      <stop stop-color="#3E2723"/>
      <stop offset="1" stop-color="#1B1008"/>
    </linearGradient>
    <linearGradient id="leoShirt" x1="100" y1="140" x2="100" y2="200">
      <stop stop-color="#64748B"/>
      <stop offset="1" stop-color="#475569"/>
    </linearGradient>
  </defs>
  <rect width="200" height="200" fill="#1E293B"/>
  <ellipse cx="100" cy="188" rx="68" ry="24" fill="#000" opacity="0.15"/>
  <path d="M36 188c8-30 30-46 64-46s56 16 64 46" fill="url(#leoShirt)"/>
  <ellipse cx="100" cy="104" rx="44" ry="48" fill="url(#leoSkin)"/>
  <path d="M56 74c10-24 28-36 44-36s34 12 44 36c-14-10-30-14-44-14s-30 4-44 14z" fill="url(#leoHair)"/>
  <ellipse cx="82" cy="98" rx="5" ry="6" fill="#2D1810"/>
  <ellipse cx="118" cy="98" rx="5" ry="6" fill="#2D1810"/>
  <circle cx="84" cy="96" r="1.8" fill="#FFF" opacity="0.65"/>
  <circle cx="120" cy="96" r="1.8" fill="#FFF" opacity="0.65"/>
  <path d="M88 118c6 8 18 8 24 0" stroke="#8B4513" stroke-width="3.5" stroke-linecap="round" fill="none"/>
  <path d="M90 119c5 5 15 5 20 0" stroke="#FFF" stroke-width="1.5" stroke-linecap="round" fill="none" opacity="0.25"/>
  <ellipse cx="72" cy="112" rx="8" ry="5" fill="#E8876A" opacity="0.3"/>
  <ellipse cx="128" cy="112" rx="8" ry="5" fill="#E8876A" opacity="0.3"/>
  <ellipse cx="100" cy="78" rx="36" ry="10" fill="#FFF" opacity="0.07"/>
</svg>
