<svg xmlns="http://www.w3.org/2000/svg" viewBox="0 0 200 200" fill="none">
  <rect width="200" height="200" fill="#FFFFFF"/>
  <path fill="#152238" d="M48 178c18-12 38-16 52-16s34 4 52 16v22H48v-22z"/>
  <path fill="#FFFFFF" d="M82 128h36v28c0 8-8 14-18 14s-18-6-18-14v-28z"/>
  <ellipse cx="100" cy="96" rx="42" ry="48" fill="#FFFFFF" stroke="#152238" stroke-width="2.5"/>
  <path fill="#152238" d="M58 72c2-24 20-38 42-38s40 14 42 38c0 10-2 18-6 24-4-12-14-20-28-22-4 8-8 14-14 18 2-8 2-16 0-22-12 2-22 10-26 22-4-6-6-14-6-22-8 4-12 14-10 24 4-8 10-14 18-16-2-6-2-12 0-18z"/>
  <path fill="#152238" d="M58 68c-6 2-10 8-12 16 2-6 6-10 12-12v-4z"/>
  <path fill="#152238" d="M142 68c6 2 10 8 12 16-2-6-6-10-12-12v-4z"/>
  <circle cx="84" cy="94" r="3.5" fill="#152238"/>
  <circle cx="116" cy="94" r="3.5" fill="#152238"/>
  <path stroke="#152238" stroke-width="2" stroke-linecap="round" d="M100 102v5"/>
  <path stroke="#152238" stroke-width="2.5" stroke-linecap="round" d="M86 118c8 6 20 6 28 0"/>
  <path fill="#FFFFFF" stroke="#152238" stroke-width="2" d="M62 92c0 8 4 14 8 16M138 92c0 8-4 14-8 16"/>
</svg>
