<svg xmlns="http://www.w3.org/2000/svg" viewBox="0 0 200 200" fill="none">
  <rect width="200" height="200" fill="#FFFFFF"/>
  <path fill="#152238" d="M48 178c18-12 38-16 52-16s34 4 52 16v22H48v-22z"/>
  <path fill="#FFFFFF" d="M82 128h36v28c0 8-8 14-18 14s-18-6-18-14v-28z"/>
  <ellipse cx="108" cy="96" rx="40" ry="46" fill="#FFFFFF" stroke="#152238" stroke-width="2.5"/>
  <path fill="#152238" d="M62 52c8-18 32-24 52-14 10 6 16 18 18 32 2 16-2 34-10 48-4-18-12-32-24-40-14-10-30-10-36-26z"/>
  <path fill="#152238" d="M58 70c-6 8-8 20-6 32 2 10 6 18 12 24-6-14-6-30 2-44-4 2-8-2-8-12z"/>
  <path fill="#152238" d="M130 58c6 10 8 22 6 34-2 10-6 18-12 26 6-12 8-28 2-42 2 4 4-8 4-18z"/>
  <circle cx="122" cy="92" r="3.5" fill="#152238"/>
  <path stroke="#152238" stroke-width="2" stroke-linecap="round" d="M124 100c2 3 0 6-4 7"/>
  <path stroke="#152238" stroke-width="2.5" stroke-linecap="round" d="M108 118c8 6 18 6 26 0"/>
</svg>
