<svg xmlns="http://www.w3.org/2000/svg" viewBox="0 0 200 200" fill="none">
  <defs>
    <linearGradient id="marcoSkin" x1="100" y1="58" x2="100" y2="130" gradientUnits="userSpaceOnUse">
      <stop stop-color="#F0C9A8"/>
      <stop offset="1" stop-color="#C9956E"/>
    </linearGradient>
    <linearGradient id="marcoHair" x1="100" y1="34" x2="100" y2="82" gradientUnits="userSpaceOnUse">
      <stop stop-color="#2C1810"/>
      <stop offset="1" stop-color="#120A06"/>
    </linearGradient>
    <linearGradient id="marcoShirt" x1="100" y1="138" x2="100" y2="200" gradientUnits="userSpaceOnUse">
      <stop stop-color="#F5F5F4"/>
      <stop offset="1" stop-color="#D6D3D1"/>
    </linearGradient>
  </defs>
  <rect width="200" height="200" fill="#2563EB"/>
  <ellipse cx="100" cy="188" rx="72" ry="28" fill="#000" opacity="0.12"/>
  <path d="M38 188c6-28 28-44 62-44s56 16 62 44" fill="url(#marcoShirt)"/>
  <ellipse cx="100" cy="104" rx="44" ry="48" fill="url(#marcoSkin)"/>
  <ellipse cx="100" cy="58" rx="44" ry="22" fill="url(#marcoHair)"/>
  <circle cx="72" cy="62" r="10" fill="url(#marcoHair)"/>
  <circle cx="128" cy="62" r="10" fill="url(#marcoHair)"/>
  <path d="M82 94h-8" stroke="#1A1A1A" stroke-width="3.5" stroke-linecap="round"/>
  <path d="M118 94h-8" stroke="#1A1A1A" stroke-width="3.5" stroke-linecap="round"/>
  <path d="M98 100v8" stroke="#1A1A1A" stroke-width="3.5" stroke-linecap="round"/>
  <path d="M98 108h6" stroke="#1A1A1A" stroke-width="3.5" stroke-linecap="round"/>
  <path d="M94 114h12" stroke="#1A1A1A" stroke-width="2.5" stroke-linecap="round"/>
  <ellipse cx="100" cy="80" rx="36" ry="8" fill="#FFF" opacity="0.1"/>
</svg>
