<svg xmlns="http://www.w3.org/2000/svg" viewBox="0 0 200 200" fill="none">
  <rect width="200" height="200" fill="#FAFAFA"/>
  <circle cx="100" cy="108" r="44" fill="#FFFFFF" stroke="#1F2937" stroke-width="2"/>
  <path fill="#1F2937" d="M56 90c6-24 22-36 44-36s38 12 44 36c-2 10-6 18-12 24-4-16-16-26-32-26s-28 10-32 26c-6-6-10-14-12-24z"/>
  <path fill="#1F2937" d="M56 96c-8 12-8 28 0 40 4-10 10-16 18-18-8-4-14-12-18-22z"/>
  <path fill="#1F2937" d="M144 96c8 12 8 28 0 40-4-10-10-16-18-18 8-4 14-12 18-22z"/>
  <circle cx="86" cy="106" r="3" fill="#1F2937"/>
  <circle cx="114" cy="106" r="3" fill="#1F2937"/>
  <path stroke="#1F2937" stroke-width="2.5" stroke-linecap="round" d="M88 124c8 5 16 5 24 0"/>
</svg>
