<svg xmlns="http://www.w3.org/2000/svg" viewBox="0 0 200 200" fill="none">
  <defs>
    <linearGradient id="novaSkin" x1="100" y1="60" x2="100" y2="132">
      <stop stop-color="#FFE8D6"/>
      <stop offset="1" stop-color="#E8B896"/>
    </linearGradient>
    <linearGradient id="novaHair" x1="100" y1="28" x2="100" y2="150">
      <stop stop-color="#5C3D2E"/>
      <stop offset="1" stop-color="#2A1810"/>
    </linearGradient>
    <linearGradient id="novaShirt" x1="100" y1="140" x2="100" y2="200">
      <stop stop-color="#FCA5A5"/>
      <stop offset="1" stop-color="#F87171"/>
    </linearGradient>
  </defs>
  <rect width="200" height="200" fill="#7C3AED"/>
  <ellipse cx="100" cy="188" rx="68" ry="24" fill="#000" opacity="0.15"/>
  <path d="M44 130c-8-42 12-76 56-76s64 34 56 76c-16-20-40-30-56-30s-40 10-56 30z" fill="url(#novaHair)"/>
  <path d="M36 188c8-30 30-46 64-46s56 16 64 46" fill="url(#novaShirt)"/>
  <ellipse cx="100" cy="104" rx="42" ry="46" fill="url(#novaSkin)"/>
  <path d="M58 78c14-24 32-34 42-34s28 10 42 34" fill="url(#novaHair)"/>
  <path d="M74 96c6-4 12-4 18 0" stroke="#3D2914" stroke-width="4" stroke-linecap="round" fill="none"/>
  <path d="M108 96c6-4 12-4 18 0" stroke="#3D2914" stroke-width="4" stroke-linecap="round" fill="none"/>
  <ellipse cx="68" cy="110" rx="8" ry="5" fill="#F472B6" opacity="0.35"/>
  <ellipse cx="132" cy="110" rx="8" ry="5" fill="#F472B6" opacity="0.35"/>
  <path d="M78 118c8 12 36 12 44 0" stroke="#6B3A2A" stroke-width="4" stroke-linecap="round" fill="none"/>
  <ellipse cx="100" cy="78" rx="34" ry="9" fill="#FFF" opacity="0.08"/>
</svg>
